<?xml version="1.0" encoding="UTF-8"?>
<!DOCTYPE svg PUBLIC "-//W3C//DTD SVG 1.1//EN" "http://www.w3.org/Graphics/SVG/1.1/DTD/svg11.dtd">
<!-- Creator: CorelDRAW 2021 (64-Bit) -->
<svg xmlns="http://www.w3.org/2000/svg" xml:space="preserve" width="457.2mm" height="297mm" version="1.1" style="shape-rendering:geometricPrecision; text-rendering:geometricPrecision; image-rendering:optimizeQuality; fill-rule:evenodd; clip-rule:evenodd"
viewBox="0 0 45720 29700"
 xmlns:xlink="http://www.w3.org/1999/xlink"
 xmlns:xodm="http://www.corel.com/coreldraw/odm/2003">
 <defs>
  <style type="text/css">
   <![CDATA[
    .str0 {stroke:red;stroke-width:7.62;stroke-linecap:round;stroke-linejoin:round;stroke-miterlimit:22.9256}
    .fil1 {fill:none}
    .fil0 {fill:red}
    .fil2 {fill:red;fill-rule:nonzero}
   ]]>
  </style>
 </defs>
 <g id="Layer_x0020_1">
  <metadata id="CorelCorpID_0Corel-Layer"/>
  <path class="fil0" d="M22885.01 1357.98c180.93,192.82 281.85,438.9 283.86,706.87 -5.01,267.89 -107.91,512.78 -289.87,703.9 -390.82,-392.13 -387.84,-1021.83 6.01,-1410.77zm54.96 3981.68l0 -2327.52c0,-20.2 0,-40.41 0,-60.67l2.01 -1.8c251.85,-227.81 393.83,-545.55 398.83,-884.82 -2,-339.24 -141.96,-657.88 -391.83,-887.68 -37.01,-33.99 -84.97,-31.07 -121.95,0 -528.76,441.02 -548.73,1254.54 -59.99,1724.52l0 2438.12c31.01,-0.3 61.87,-1.18 92.96,-1.18 26.74,0 53.29,0.81 79.97,1.03zm217.92 22295.39c-2.03,268.38 -102.97,514.18 -283.89,706.79 -393.8,-388.54 -396.83,-1018.66 -5,-1410.57 180.91,191.02 284.88,435.9 288.89,703.78zm-390.85 -3274.78l0 2295.22c0,44.09 0,88.54 0,132.55 -499.75,468.67 -483.78,1290.82 49,1734.68 36.97,31.2 84.93,34.22 121.94,0 249.87,-229.76 389.83,-548.43 391.82,-887.67 -5.01,-335.35 -143.95,-649.62 -389.83,-876.89l0 -2397.72c-26.68,0.21 -53.23,1 -79.97,1 -31.09,0 -61.95,-0.88 -92.96,-1.17zm-10212.29 -4202.5c-18,30.78 63.95,2.9 77.96,-19.59 15.99,-27.27 29.99,-55.18 34.98,-87.46 9,-56.67 -4.99,-124.66 -48.99,-164.72 -86.94,-80.67 -214.9,-115.84 -330.83,-85.09 -252.89,66 -377.82,331.49 -397.82,574.38 -28.98,361.73 95.97,753.62 388.8,981.94 234.95,182.81 523.77,300.54 817.63,347.04 319.87,50.29 661.73,16.09 958.57,-115.36 361.86,-160.31 648.7,-430.6 863.57,-758.55 6.05,-18.58 20.03,-33.28 37.01,-42.55 52.99,-35.73 131.95,3.38 137.95,61.53 219.89,606.63 180.92,1292.31 -114.97,1865.67 575.75,-298.07 1260.44,-347.96 1877.18,-123.66 58.95,5.42 98.92,84.06 61.94,137.34 -8.99,17.59 -22.99,30.79 -42.98,36.7 -416.77,275.18 -749.66,675.49 -855.6,1173.04 -66.96,311.37 -46.98,638.44 53.97,940.4 92.96,280.65 253.88,585.11 514.77,742.46 305.86,185.29 753.66,261.56 1077.5,72.87 161.93,-94.36 293.87,-273.19 239.91,-470.21 -25.01,-91.97 -79.98,-191.6 -182.92,-207.32 -45.01,-6.77 -94.97,0 -133.95,23.01 -19.98,11.79 -48.96,26.39 -54.96,51.78 -2.01,9.31 -11.01,53.36 14.98,38.71 95.97,-56.69 181.92,91.83 86.95,148.52 -122.95,72.83 -286.86,-15.1 -276.84,-166.14 7.98,-135.45 116.92,-241 250.87,-261.98 275.87,-42.59 484.79,189.11 477.77,459.88 -13.99,598.84 -747.67,738.55 -1212.45,615.92 -345.83,-90.98 -607.7,-296.27 -788.63,-602.72 -156.95,-267.88 -252.89,-572.34 -272.89,-882.72 -22.97,-334.82 39.99,-674.47 190.92,-975.53 152.93,-304.54 382.83,-555.72 653.72,-757.14 -643.71,-181.33 -1347.38,-62.08 -1885.16,334.32 -132.94,179.42 -290.85,339.14 -470.77,473.59 -155.92,210.7 -276.84,451.7 -323.86,702.38 -68.96,376.32 50.98,779.54 323.86,1049.92 266.88,262.99 710.67,452.1 1037.52,173.54 139.95,-118.87 268.87,-314.88 189.91,-502.48 -32.98,-78.66 -123.94,-181.83 -217.91,-182.83 -68.96,-0.47 -221.86,96.75 -107.93,151.55 99.93,48.38 12.98,197 -86.96,149 -173.94,-84.02 -145.93,-300.04 -10.99,-406.07 139.92,-109.58 326.84,-69.99 452.8,42.96 275.86,248.27 167.91,657.38 -96.97,869.48 -586.74,469.31 -1356.39,-40.96 -1586.29,-646.07 -151.92,-401.84 -87.94,-821.13 96.98,-1192.18 -201.93,105.57 -420.81,180.41 -645.7,192.12 -378.86,20.1 -763.66,-120.24 -1032.55,-392.01 -263.89,-266.88 -463.78,-677.37 -308.86,-1050.43 133.97,-322.06 556.76,-661.29 904.59,-414.41 148.94,105.05 271.87,302.57 178.92,484.29 -86.96,169.61 -341.87,249.37 -440.8,44.56 -47.99,-99.76 99.96,-186.7 147.91,-87.04 30.03,61.05 85.97,39.08 121.98,-6.28 32.98,-41.59 38.96,-97.4 18.99,-145.76 -36.99,-89.85 -117.95,-164.21 -213.92,-187.12 -194.89,-46.46 -400.82,97.27 -499.78,258.49 -226.87,371.03 -10.97,808.43 296.87,1058.7 298.88,242.89 711.69,331.96 1082.52,219.52 209.9,-64.08 409.82,-167.6 589.72,-298.65 137.95,-184.75 301.86,-348.55 478.78,-481.5 389.82,-540.03 505.76,-1231.64 325.85,-1870.93 -280.88,375.82 -663.68,674.98 -1125.48,790.31 -432.81,107.45 -893.59,62.98 -1300.4,-120.75 -292.85,-132.91 -562.76,-330.92 -699.67,-629.97 -153.94,-335.36 -202.93,-757.69 -29.01,-1096.43 84.95,-167.09 229.9,-316.75 419.83,-357.23 182.9,-39.19 384.79,2.92 513.75,146.14 128.95,141.24 110.96,394.41 -36.96,515.16 -158.94,129.54 -432.82,-22.99 -312.86,-224.88 56.96,-95.75 204.89,-9.31 148.93,86.54zm640.7 -242.37c160.91,-142.24 361.82,-218.52 580.73,-218.09 216.9,7.37 413.79,91.93 568.73,238.58 -327.83,307.45 -832.62,296.66 -1149.46,-20.49zm1330.37 -40.58c-191.9,-217.5 -460.79,-340.28 -749.64,-349.53 -289.87,-0.93 -562.73,114.33 -761.68,325.02 -34.96,36.68 -29.98,84.58 0,121.74 371.87,456.99 1066.55,478.48 1473.36,63.46 15.99,8.8 34.98,13.21 56.96,9.81 103.21,-16.06 205.59,-36.77 306.49,-62.25 -32.46,-50.52 -64.1,-101.65 -95.62,-152.81 -76.16,17.35 -152.89,32.07 -229.87,44.56zm3482.41 4033.84c0.98,218.89 -74.97,419.8 -217.89,580.65 -316.87,-316.77 -327.87,-821.63 -20.01,-1149.57 146.95,154.91 230.9,351.4 237.9,568.92zm-291.17 -1056.44c-22.84,94.96 -41.55,190.96 -56.66,287.59 -2.99,22.01 1,41.08 10.01,57.18 -414.83,406.6 -393.82,1100.68 63.94,1473.23 36.98,30.28 84.98,34.57 120.93,0 210.94,-199.52 326.85,-471.79 325.88,-761.56 -10,-289.37 -131.96,-557.71 -349.84,-749.76 11.55,-70.19 25.25,-139.97 41.16,-209.12 -52.09,-32.11 -104.01,-64.46 -155.42,-97.56zm63.29 -17641.3c141.94,160.83 217.89,361.62 217.89,580.35 -8.01,217.49 -91.96,414.11 -237.89,569.12 -307.84,-327.94 -297.88,-832.82 20,-1149.47zm389.81 580.35c1,-289.85 -114.91,-561.84 -324.85,-761.27 -36.99,-34.76 -84.96,-30.28 -121.94,0 -456.82,372.34 -478.79,1066.51 -63.94,1473.03 -9.03,16.19 -13.02,35.49 -9.03,57.45 15.15,98.54 34.61,196.3 58.47,292.78 50.61,-32.66 101.71,-64.63 152.97,-96.35 -15.99,-71.47 -29.73,-143.46 -41.52,-215.69 217.88,-192.14 340.83,-460.49 349.84,-749.95zm-8816.95 9069.92c192.9,-180.49 438.78,-281.47 706.69,-283.67 267.86,4.42 512.74,107.65 703.68,289.47 -391.83,391.2 -1021.56,388.33 -1410.37,-5.8zm1591.28 65.19l4.99 -6.59 2399.99 0c-0.17,-23.27 -0.89,-46.43 -0.89,-69.75 0,-34.2 0.93,-68.17 1.3,-102.27l-2318.44 0c-46.98,0 -93.97,0 -141.96,0 -222.88,-216.32 -516.75,-337.16 -829.58,-342.36 -338.84,2.79 -657.73,142.24 -887.61,392.41 -33.96,36.88 -30.99,84.45 0,121.65 456.79,547.06 1311.41,549.87 1772.2,6.91zm2841.7 -4902.15c-218.91,0.69 -419.81,-75.76 -579.74,-217.81 315.85,-317.36 821.61,-327.95 1149.46,-20.29 -154.93,146.52 -351.82,231.1 -569.72,238.1zm1055.17 -291.66c-94.36,-22.65 -189.7,-41.27 -285.54,-56.28 -21.99,-3.41 -40.99,0.88 -57.98,9.78 -405.82,-414.99 -1100.47,-393.32 -1472.33,63.71 -30.97,37.03 -34.95,85.02 0,121.7 198.93,210.41 471.79,325.76 760.68,324.86 289.84,-9.3 557.74,-131.73 750.63,-349.32 69.71,11.42 138.99,24.99 207.65,40.75 31.87,-52.03 64.06,-103.86 96.89,-155.2zm-3072.25 -842.33c90.97,-345.54 295.85,-608.03 602.71,-788.04 267.86,-157.52 571.73,-252.87 882.6,-273.71 334.84,-22.36 674.68,40.81 975.55,191.35 304.86,152.43 555.74,382.84 756.65,653.6 181.93,-643.41 62.96,-1347.11 -333.87,-1884.75 -178.9,-133.32 -338.83,-291.65 -473.74,-470.95 -210.92,-156.05 -451.8,-277.56 -702.69,-323.89 -375.82,-69.45 -778.67,50.18 -1049.54,324.06 -262.85,266.2 -451.77,710.87 -173.88,1037.42 118.92,139.37 314.85,268.3 502.74,189.43 78.97,-33.01 181.92,-123.94 182.94,-217.49 0.99,-68.88 -96.97,-221.81 -151.97,-108.08 -47.96,99.94 -196.88,12.63 -148.91,-86.85 83.97,-173.7 300.88,-146.2 406.81,-10.89 108.96,139.93 69.99,327.14 -42.95,452.5 -248.91,275.96 -657.73,168.01 -869.64,-96.96 -469.77,-586.23 40.99,-1356.19 645.71,-1585.58 402.81,-152.5 821.64,-88.46 1192.46,96.28 -105.96,-201.64 -180.9,-420.7 -191.92,-645.43 -19.96,-378.92 119.96,-764.54 391.82,-1032.51 266.87,-263.69 677.7,-464.11 1050.54,-309.25 321.84,133.71 660.69,556.51 413.79,904.96 -104.95,148.54 -301.87,271.39 -483.77,178.43 -169.91,-86.58 -249.89,-341.95 -44.97,-440.9 99.93,-48.08 186.91,100.36 86.96,148.62 -60.97,29.38 -38.99,86.08 6.96,121.96 41,32.37 96.97,38.36 144.95,18.61 90.98,-37.11 164.92,-117.68 187.93,-213.54 45.97,-195.3 -96.95,-401.01 -258.87,-499.95 -370.86,-227.1 -808.64,-10.8 -1058.53,297.25 -242.88,298.56 -331.84,711.38 -219.9,1081.41 63.97,210.31 167.93,410.71 298.87,590.62 184.89,137.03 348.84,301.74 481.76,478.28 539.76,389.53 1231.42,506.08 1871.16,325.48 -375.84,-280.98 -675.72,-662.82 -790.66,-1125.7 -107.95,-432.52 -62.93,-893.38 120.95,-1299.21 132.93,-292.96 330.86,-562.55 629.72,-700.08 334.83,-154.22 757.64,-202.98 1096.49,-29.6 166.93,85.6 316.84,230.09 356.86,420.03 39.95,183.44 -3.01,384.6 -145.96,514.37 -140.92,128.51 -394.8,110.53 -514.75,-37.7 -129.92,-159.04 22.98,-432 224.89,-312.35 94.95,56.47 9.01,205.3 -86.96,148.63 -30.98,-18 -2.97,64.34 20,77.97 26.99,16.49 54.99,30.17 86.97,35.26 56.93,8.83 124.93,-4.68 164.92,-48.67 80.95,-87.45 115.93,-215.8 84.94,-331.71 -65.96,-252.19 -331.82,-377.75 -574.72,-397.35 -360.85,-28.99 -753.64,95.66 -981.56,388.72 -182.9,235.4 -300.85,523.66 -346.83,817.53 -49.98,319.95 -15.99,661.81 114.94,959.35 160.94,361.35 430.76,647.9 758.65,863.71 18.99,5.61 33.01,19.21 42.99,36.4 34.98,53.17 -4,131.54 -61.97,137.29 -606.73,220.63 -1292.41,180.96 -1865.14,-114.89 297.85,576.11 347.82,1261.3 122.95,1878.21 -5.02,58.58 -83.97,97.97 -136.96,61.88 -16.98,-9.39 -30.97,-24.11 -37.01,-42.96 -274.86,-417.64 -675.69,-750.09 -1172.45,-856.13 -311.86,-66.48 -638.72,-46.67 -940.55,53.57 -280.85,93.15 -584.73,254.69 -742.67,514.95 -184.9,306.39 -261.86,754.28 -72.96,1077.63 94.96,161.55 273.88,293.85 470.78,240.09 91.96,-25.19 190.93,-79.86 206.88,-183.32 7.03,-43.99 0,-94.96 -22.94,-133.53 -12.02,-19.81 -26.02,-49.07 -51.99,-54.79 -9.01,-2.07 -52.98,-10.79 -38.98,14.51 56.95,95.75 -90.97,182.3 -147.95,86.86 -72.96,-123.15 15.01,-286.07 165.94,-276.71 135.95,8.43 240.88,117.06 261.87,251.28 42.97,275.61 -188.89,484.4 -458.79,477.83 -599.72,-14.6 -739.65,-747.87 -616.7,-1212.86zm20174.73 10807.07c218.91,-0.43 419.83,75.85 580.74,218.09 -316.85,317.15 -821.62,327.94 -1149.47,20.49 154.93,-146.65 351.84,-231.21 568.73,-238.58zm-1075.74 286.68c101.25,24.96 203.75,45.23 307.1,61.33 21.99,3.4 40.99,-1.01 56.96,-9.81 406.84,415.02 1101.52,393.53 1473.35,-63.46 30.97,-37.16 34.98,-85.06 0,-121.74 -198.93,-210.69 -471.8,-325.95 -761.67,-325.02 -288.85,9.25 -557.74,132.03 -749.64,349.53 -76.98,-12.62 -153.45,-27.89 -229.13,-45.79 -31.95,51.91 -64.05,103.73 -96.97,154.96zm2085.28 3846.39c-407.8,154.56 -832.6,86.58 -1206.44,-103.55 100.94,197.43 172.91,411.53 184.91,631.01 19.98,378.76 -120.94,764.46 -392.82,1032.73 -266.88,263.51 -676.7,463.9 -1049.53,308.95 -322.85,-133.92 -661.67,-556.71 -415.79,-904.76 105.94,-148.54 303.84,-271.69 485.77,-178.8 168.89,86.93 247.9,342.12 43.98,441.25 -99.94,48 -186.91,-100.62 -86.94,-149 60.96,-29.38 38.98,-86.07 -7.03,-121.74 -40.98,-32.18 -96.96,-38.6 -144.94,-18.62 -90.91,37.2 -164.92,117.87 -186.89,213.61 -46.99,195.13 95.98,400.85 257.88,500.08 370.82,226.81 808.63,10.7 1058.53,-297.15 243.87,-298.67 331.84,-711.71 219.89,-1081.72 -62.97,-205.81 -163.92,-402.19 -290.87,-579.24 -183.93,-138.77 -346.83,-304.97 -478.78,-481.88 -540.76,-395.91 -1238.42,-515.16 -1882.14,-333.33 375.85,281.07 675.7,662.78 790.63,1125.57 107.96,432.58 62.97,893.47 -120.94,1299.19 -131.94,293.27 -330.86,562.67 -629.72,700.4 -334.85,154.02 -757.64,202.9 -1096.49,29.36 -166.92,-85.5 -315.83,-230.17 -356.83,-419.88 -40,-183.22 2.99,-384.63 145.94,-514.15 141.93,-128.58 393.79,-110.96 515.76,37.67 128.95,158.84 -23.01,432.11 -225.91,312.27 -94.95,-56.69 -8.99,-205.21 86.94,-148.52 31.04,18.04 3.04,-64.61 -18.96,-78.29 -28,-16.6 -55.96,-30.29 -87.94,-35.21 -57,-8.77 -124.96,4.92 -164.95,48.89 -79.97,87.07 -115.96,215.59 -84.96,331.47 65.96,252.18 330.86,377.82 573.73,397.3 361.84,29.4 754.66,-95.75 982.56,-388.54 182.92,-235.58 300.86,-523.95 346.84,-817.7 50.94,-319.68 16.98,-661.8 -114.94,-958.95 -159.95,-361.76 -430.81,-648.12 -758.65,-863.71 -18.02,-5.91 -32.99,-19.49 -42.02,-36.7 -36.96,-53.28 3.02,-131.43 60.98,-137.34 611.76,-222.38 1303.41,-180.28 1880.14,122.74 -291.85,-573.32 -338.83,-1252.21 -116.92,-1864.24 6.01,-58.66 84.94,-98.25 137.93,-62.04 17.01,9.77 30.98,24.47 36.97,43.05 274.9,417.91 675.71,750.29 1172.46,856.31 311.88,66.47 638.7,46.38 940.56,-53.76 280.89,-92.84 585.78,-254.69 742.68,-514.66 184.91,-306.47 260.87,-754.26 72.98,-1077.82 -94.98,-161.73 -273.88,-293.77 -470.78,-240.02 -91.99,25.02 -190.91,79.69 -206.93,183.33 -7,43.99 0,94.89 22.98,133.47 12.03,19.59 25.99,48.87 51.99,54.74 9,1.93 52.97,10.72 37.99,-14.68 -55.98,-95.85 91.95,-182.29 148.93,-86.54 72.97,123.22 -15,285.96 -165.94,276.65 -135.94,-8.78 -240.88,-117.23 -261.88,-251.16 -42.97,-275.68 188.91,-484.39 459.8,-478.1 598.73,14.69 738.66,747.85 615.72,1212.67 -90.97,345.51 -295.87,608.49 -602.73,788.41 -267.85,157.34 -572.73,252.71 -882.59,273.68 -334.84,21.99 -674.68,-40.96 -975.55,-191.61 -304.86,-152.42 -555.75,-382.72 -757.67,-653.5 -179.87,638.41 -63.95,1336.38 325.87,1872.56 177.92,134.41 336.85,293.74 469.78,474.06 213.91,160.32 459.79,285.99 714.69,332.82 376.8,69.5 779.62,-50.25 1050.49,-324.03 262.88,-265.87 451.82,-710.58 172.95,-1037.12 -118.94,-139.31 -314.85,-268.38 -501.78,-189.7 -78.97,33.25 -181.92,124.24 -182.94,217.59 -0.98,68.86 96.97,221.88 151.95,107.96 47.98,-99.66 195.91,-12.72 148.93,87.04 -84.96,173.54 -300.88,146.14 -406.81,10.71 -108.97,-139.75 -69.99,-326.97 42.97,-452.09 248.89,-276.17 657.71,-168.12 869.62,96.77 469.77,586.02 -41.02,1356.36 -645.72,1585.54zm-8024.34 1047.92c27.99,327.58 -66.95,644.32 -272.89,897.52 -473.48,-369.76 -580.57,-1034.03 -288.34,-1533.8 -70.32,11.2 -140.93,21.46 -211.72,31.16 -106.95,228.72 -150.01,484.91 -117.62,742.56 48.97,388.54 267.85,729.68 588.72,950.66 30.01,21 79,13.21 103.96,-13.2 267.88,-293.26 403.82,-678.46 370.82,-1074.9 -28.46,-267.84 -125.47,-513.19 -281.79,-719.53 -62.54,13.1 -125.36,25.36 -188.35,37.23 165.8,189.95 270.85,428.63 297.21,682.3zm-3865.19 897.52c-205.92,-253.2 -300.86,-569.94 -273.89,-897.52 27.17,-253.65 132.38,-492.35 298.19,-682.3 -62.88,-11.85 -125.66,-24.13 -188.1,-37.17 -156.38,206.23 -253.59,451.49 -282.01,719.47 -33,396.44 102.97,781.64 370.83,1074.9 24.98,26.41 73.96,34.2 104.96,13.2 319.81,-220.98 538.75,-562.12 587.74,-950.66 32.39,-257.72 -10.71,-513.97 -117.72,-742.58 -70.79,-9.65 -141.37,-19.94 -211.66,-31.14 292.23,499.77 185.18,1164.04 -288.34,1533.8zm-3459.45 1297.18c-232.89,-0.99 -444.75,-85.04 -613.7,-238.1 337.85,-337.23 876.6,-343.02 1220.44,-11.67 -165.91,155.41 -375.79,244.36 -606.74,249.77zm2339.96 -2294.34c-314.87,320.13 -755.67,478.47 -1199.46,460.88 -0.99,-442.3 167.92,-862.59 479.79,-1180.33 111.09,-109.35 234.76,-201.04 367.48,-274.02 -68.38,-25.02 -136.36,-50.96 -204,-77.51 -101.53,66.47 -197.2,143.31 -285.44,229.87 -361.83,367.43 -553.72,867 -527.76,1382.67 3.01,50.36 38.02,81.63 85.96,86.06 521.78,46.9 1033.52,-139.85 1405.35,-505.87 230.58,-226.56 388.15,-516.43 462.67,-827.18 -56.1,-14.13 -111.88,-29.04 -167.59,-44.14 -67.25,279.31 -208.59,537.67 -417,749.57zm-7137.73 -7863.04c-327.86,27.12 -644.7,-67.24 -898.6,-272.81 376.52,-482.31 1059.49,-584.65 1562.22,-271.45 -11.55,-71.79 -22.11,-143.88 -32.13,-216.16 -235.26,-116.36 -501.54,-164.24 -769.45,-130.63 -388.8,48.8 -729.64,267.47 -950.56,588.23 -20.98,30.5 -13.96,79.76 13.01,104.28 293.84,267.55 678.69,403.58 1075.51,370.61 276.86,-28.86 529.64,-131.8 740.15,-298.02 -13.1,-63.16 -25.24,-126.65 -37.05,-190.25 -193.02,176.44 -440.14,288.78 -703.1,316.2zm818.62 1565.63c-317.88,312.76 -737.68,481.18 -1180.45,479.48 -18.02,-447.34 143.95,-876.91 460.78,-1199.04 212.7,-216.22 482.93,-358.66 772.68,-422.91 -14.94,-55.27 -29.54,-110.68 -43.57,-166.33 -318,73.09 -612.72,233.51 -850.06,467.49 -370.82,363.84 -552.74,890.79 -506.77,1404.86 4.99,48.67 35.99,83.46 86.96,86.04 514.77,26.11 1014.53,-166.04 1382.39,-527.86 93.08,-94.75 174.93,-198.22 244.75,-308.43 -26.79,-68.94 -52.91,-138.26 -78.13,-208 -75.17,143.05 -171.77,276 -288.58,394.7zm-2775.74 2234.16c-152.92,-168.62 -236.87,-381.2 -237.89,-613.31 5,-231.3 93.97,-441.39 249.89,-606.61 330.85,343.63 325.88,882.2 -12,1219.92zm1070.52 -7636.38c252.88,-205.62 569.73,-299.99 896.59,-272.88 257.94,26.84 500.08,134.82 691.17,304.56 11.69,-63.28 23.64,-126.45 36.58,-189.29 -207.8,-159.94 -456.04,-259.17 -727.75,-287.39 -395.81,-32.91 -780.63,103.07 -1074.49,370.72 -26.02,24.5 -33.99,73.77 -13.02,104.24 220.92,320.66 561.74,539.37 950.57,588.26 262.37,32.82 522.67,-12.33 754.4,-123.43 9.55,-71.41 19.8,-142.64 30.94,-213.55 -500.93,300.95 -1172.53,195.89 -1544.99,-281.24zm-1297.4 -3459.53c1.01,-232.01 84.96,-444.4 237.89,-613.23 336.83,337.75 342.84,876.2 11.99,1220.17 -155.95,-165.54 -244.85,-375.55 -249.88,-606.94zm1833.16 1141.48c441.8,-1.59 862.6,166.82 1180.45,479.48 111.01,112.8 203.87,238.49 277.43,373.47 24.95,-68.94 50.75,-137.43 77.23,-205.63 -67.08,-103.15 -144.84,-200.18 -232.69,-289.47 -367.86,-361.85 -867.63,-553.96 -1383.39,-527.89 -49.97,2.52 -80.97,37.51 -85.93,85.97 -47,520.67 139.92,1032.74 505.75,1404.98 228.9,232.49 521.76,390.52 835.49,464.42 13.95,-56.04 28.46,-111.84 43.39,-167.5 -282.33,-66.55 -543.41,-208.53 -756.94,-418.68 -319.86,-314.66 -478.82,-755.66 -460.79,-1199.15zm8324.18 -5939.18c-26.99,-327.46 66.94,-644.5 271.88,-897.67 474.18,370.14 581.71,1035.9 287.47,1536.07 70.68,-11.36 141.66,-21.79 212.82,-31.64 107.54,-229.06 150.9,-485.92 118.41,-744.09 -48.97,-388.64 -266.89,-729.77 -587.72,-950.86 -30.98,-20.98 -79.97,-13.4 -104.94,13.48 -266.9,293.28 -402.82,678.09 -370.85,1074.71 28.6,268.85 126.19,514.84 283.46,721.53 62.34,-13.13 124.98,-25.46 187.76,-37.35 -166.19,-190.28 -271.82,-429.63 -298.29,-684.18zm-2045.05 -361.32c446.78,-17.92 876.57,144.03 1198.43,460.77 211.06,207.7 352.02,470.31 418.35,752.36 55.14,-15.04 110.36,-29.88 165.85,-43.97 -75.19,-309.97 -233.79,-597.36 -462.26,-830.05 -363.82,-370 -890.57,-552.22 -1404.35,-505.85 -48.95,4.38 -83.97,35.89 -86.95,86.06 -24.99,515.67 166.92,1015.02 528.74,1382.78 88.94,87.69 185.68,165.36 288.55,232.42 67.78,-26.66 135.93,-52.61 204.47,-77.73 -134.49,-73.34 -259.71,-165.83 -372.09,-276.35 -312.83,-317.83 -480.74,-737.94 -478.74,-1180.44zm-1755.22 -1595.19c168.93,-153.01 381.83,-236.97 613.72,-238.08 230.93,5.39 440.81,94.04 606.74,249.59 -343.86,331.44 -882.6,325.45 -1220.46,-11.51zm7687.45 1058.84c205.93,253.17 299.89,570.21 272.9,897.67 -26.47,254.56 -132.09,493.94 -298.26,684.19 62.63,11.87 125.08,24.2 187.28,37.24 157.66,-206.68 255.39,-452.68 283.91,-721.43 32,-396.62 -103.95,-781.43 -371.82,-1074.71 -23.99,-26.88 -72.99,-34.46 -103.96,-13.48 -319.85,221.09 -539.75,562.22 -587.73,950.86 -32.51,258.14 10.88,515.03 118.47,744.09 71.17,9.79 142.11,20.28 212.76,31.64 -294.29,-500.18 -186.79,-1165.93 286.45,-1536.07zm3459.44 -1296.92c232.9,1.11 444.8,85.07 613.74,238.08 -337.87,336.96 -876.62,342.95 -1220.44,11.51 165.91,-155.55 375.8,-244.2 606.7,-249.59zm-2339.92 2294.04c313.85,-320.05 754.65,-478.36 1198.46,-460.77 1.98,442.5 -165.94,862.61 -478.79,1180.44 -112.36,110.52 -237.61,203.02 -372.07,276.36 68.59,25.15 136.75,51.1 204.57,77.76 103.04,-67.07 200.06,-144.76 289.44,-232.46 360.83,-367.76 553.75,-867.11 527.77,-1382.78 -3.01,-50.17 -37.99,-81.68 -85.96,-86.06 -520.76,-46.98 -1033.52,139.95 -1405.35,505.85 -231.2,227.23 -389,518.12 -463.28,829.81 56.08,14.19 111.81,29.23 167.5,44.38 66.98,-280.46 208.58,-539.88 417.71,-752.53zm7116.73 7884.9c326.86,-27.11 643.72,67.26 897.6,272.88 -373.36,477.14 -1045.09,582.19 -1546.03,281.22 11.14,70.87 21.39,142.03 30.93,213.41 231.71,111.19 492.04,156.41 754.44,123.59 388.83,-48.89 729.69,-267.6 950.56,-588.26 20.99,-30.47 13,-79.74 -13,-104.24 -293.85,-267.65 -678.68,-403.63 -1074.5,-370.72 -271.77,28.24 -519.9,127.47 -727.75,287.55 12.95,62.89 24.89,126.09 36.6,189.43 191.42,-169.93 433.04,-278.01 691.15,-304.86zm-819.62 -1565.69c317.87,-312.66 738.67,-481.07 1180.47,-479.48 17.96,447.41 -143.94,876.99 -460.78,1199.15 -208.85,212.27 -473.06,353.43 -756.84,419.27 14.81,55.22 29.14,110.65 43.05,166.23 311.91,-74.73 601.57,-233.73 835.72,-463.74 369.81,-363.83 551.76,-890.8 505.74,-1404.98 -4.98,-48.46 -35.96,-83.45 -85.91,-85.97 -515.81,-26.07 -1015.55,166.04 -1383.39,527.89 -87.78,89.31 -165.59,186.42 -232.7,289.6 26.49,68.25 52.34,136.8 77.3,205.81 73.47,-135.09 166.26,-260.86 277.34,-373.78zm2775.73 -2234.19c152.95,168.83 236.9,381.22 237.91,613.23 -5.03,231.39 -93.96,441.4 -249.91,606.94 -330.85,-343.97 -324.88,-882.42 12,-1220.17zm-1048.52 7636.54c-252.91,205.57 -569.74,299.93 -896.61,272.81 -263.8,-27.42 -511.07,-139.77 -704.12,-316.22 -11.85,63.65 -23.99,127.21 -37.09,190.42 210.5,166.13 463.61,269.01 741.21,297.87 395.83,32.97 780.67,-103.06 1074.52,-370.61 27,-24.52 34,-73.78 13,-104.28 -220.88,-320.76 -561.73,-539.43 -950.56,-588.23 -267.92,-33.52 -534.21,14.29 -769.47,130.53 -9.95,72.34 -20.55,144.46 -32.13,216.26 502.56,-313.18 1184.75,-210.86 1561.25,271.45zm1297.44 3459.29c-1.03,232.11 -84.99,444.69 -237.93,613.31 -336.86,-337.72 -342.84,-876.29 -11.99,-1219.92 155.92,165.22 244.88,375.31 249.92,606.61zm-1833.19 -1141.37c-442.79,1.7 -862.59,-166.72 -1180.5,-479.48 -116.74,-118.62 -213.44,-251.48 -288.68,-394.41 -25.19,69.64 -51.27,138.85 -78.04,207.74 69.76,110.19 151.59,213.65 244.81,308.4 367.85,361.82 867.6,553.97 1383.4,527.86 49.95,-2.58 80.92,-37.37 85.93,-86.04 47,-520.56 -139.95,-1032.63 -505.76,-1404.86 -232.68,-236.33 -531.42,-395.72 -850.97,-468.03 -14.06,56.02 -28.8,111.74 -43.83,167.36 288.42,64.89 555.29,208.3 772.87,422.42 319.83,314.66 477.75,755.57 460.77,1199.04zm-6300.12 6278.81c-447.8,18.12 -877.6,-144.14 -1199.45,-460.88 -210.99,-206.95 -351.5,-468.47 -417.89,-749.33 -55.23,14.98 -110.55,29.68 -166.16,43.74 75.62,308.9 233.63,595.32 462.11,827.34 363.83,369.93 890.6,552.26 1405.35,505.87 47.98,-4.43 82.96,-35.7 85.97,-86.06 25.98,-515.67 -165.92,-1015.24 -527.76,-1382.67 -88.13,-86.59 -183.78,-163.43 -285.34,-229.91 -67.64,26.52 -135.58,52.47 -203.96,77.48 132.66,72.98 256.24,164.72 367.35,274.09 311.87,317.74 480.79,738.03 479.78,1180.33zm1754.17 1595.36c-168.9,153.06 -380.78,237.11 -613.7,238.1 -230.9,-5.41 -440.78,-94.36 -606.71,-249.77 343.84,-331.35 882.6,-325.56 1220.41,11.67zm-2184.96 696.49c139.92,-185.7 219.89,-407.12 236.88,-633.92 185.9,0 372.85,0 558.75,0 201.92,218.03 478.79,340.65 775.63,347.58 303.89,-1.51 587.73,-124.15 794.65,-346.1 33.98,-37.13 30.99,-84.52 0,-121.71 -394.83,-477.07 -1126.5,-495.06 -1547.32,-51.77 -193.89,0 -387.8,0 -580.71,0 -6.99,-99.28 -25.97,-198.41 -56.96,-294.77 -125.95,-384.13 -446.82,-684.31 -864.63,-682.79 -356.84,1.42 -704.65,253.67 -721.67,625.62 -6.99,179.42 83.99,359.72 227.93,463.37 152.93,108.45 355.84,71.85 494.76,-35.66 87.94,-67.99 -34.98,-188.72 -121.96,-121.76 -195.9,151.55 -387.81,-44.97 -424.81,-237.5 -40.93,-213.08 117.95,-380.8 294.89,-465.76 176.91,-85.06 393.81,-69.95 565.73,16.6 181.92,91.84 305.86,275.67 375.83,461.39 139.94,373.93 40,798.63 -237.91,1081.08 -276.84,282.56 -688.67,425.82 -1079.49,428.2 -392.8,2.5 -776.65,-150.52 -1066.49,-413.98 -295.9,-268.79 -500.79,-648.61 -612.74,-1029.36 -221.89,-755.64 -46.99,-1595.85 450.79,-2204.38 7.03,-8.6 14.14,-17.15 21.32,-25.64 -78.21,9.55 -156.73,18.23 -235.54,25.88 -341.26,467.44 -522.31,1042.43 -502.44,1630.32 26.99,771.86 423.8,1609.06 1122.49,1984.9 678.67,364.1 1653.22,236.06 2133.02,-399.84zm5752.88 -11489.46c499.79,-431.21 1154.22,-645.58 1823.64,-585.41 776.65,69.98 1591.28,550.67 1818.17,1330.9 211.91,728.07 -170.9,1743.08 -1016.56,1810.57 -385.8,30.7 -832.61,-174.01 -944.56,-567.41 -104.93,-369.18 206.92,-904.22 632.72,-685.01 140.94,72.56 207.93,246.51 103.96,380.7 -66.98,86.69 53.96,209.43 121.94,121.76 121.95,-156.42 139.93,-372.43 9.02,-531.04 -128.98,-155.44 -333.9,-208.8 -527.78,-182.23 -415.81,56.96 -589.73,558.25 -511.74,918.98 86.95,396.52 484.77,648.71 863.58,705.38 31,4.61 60.97,7.5 90.95,9.6 0,193.4 0,386.72 0,580.12 -442.79,420.8 -424.79,1153.07 51.98,1547.49 36.98,30.8 84.97,34.19 121.95,0 221.91,-206.8 344.86,-490.76 345.83,-794.23 -7,-297.28 -128.93,-573.43 -346.85,-775.34 0,-186.2 0,-372.41 0,-558.66 298.87,-22.8 584.76,-158.42 792.64,-381.99 546.76,-586.35 579.74,-1520.62 129.94,-2169.12 -450.78,-649.22 -1314.39,-971.55 -2083.05,-941.26 -526.03,20.72 -1032.63,208.38 -1448.48,521.95 -8.12,81.7 -17.11,163.16 -27.3,244.25zm30.12 -2107.81c469.5,348.07 1049.77,532.85 1643.57,512.47 771.63,-26.48 1609.29,-423.51 1985.1,-1122.57 363.86,-678.48 235.89,-1652.94 -399.81,-2132.83 -185.92,-140.24 -406.81,-219.9 -633.73,-236.57 0,-186.64 0,-373.05 0,-559.6 217.91,-201.77 339.87,-478.36 346.88,-775.52 -0.99,-303.25 -123.93,-587.32 -345.86,-794.24 -36.99,-34.19 -84.97,-30.69 -121.95,0 -476.77,394.72 -494.77,1126.68 -50.96,1547.71 0,193.59 0,387.22 0,580.84 -99.97,6.69 -198.9,25.46 -294.89,56.95 -384.8,125.76 -684.67,446.5 -682.69,864.03 1.01,356.91 252.92,705.25 625.72,721.57 178.94,7.79 358.85,-83.28 462.8,-228.1 108.96,-152.55 71.95,-355.47 -34.98,-494.49 -68.97,-87.67 -188.93,35.09 -121.94,121.74 150.93,195.91 -44.99,388.33 -237.91,425.11 -212.89,40.79 -380.8,-117.83 -465.79,-294.67 -84.95,-176.69 -69.95,-393.91 17.01,-566.14 91.95,-181.43 274.86,-305.46 460.79,-375.31 373.84,-140.34 798.65,-40.25 1081.49,237.48 282.89,277.57 425.81,689.49 427.81,1079.7 3.01,392.84 -149.94,776.56 -413.81,1066.53 -268.86,296.54 -648.73,501.26 -1029.51,613.1 -755.69,222.02 -1595.29,46.76 -2203.99,-450.9 -13.11,-10.73 -26.09,-21.65 -38.93,-32.69 9.45,78.53 17.98,157.32 25.58,236.4zm-8283.42 -8522.2c-416.04,-496.03 -621.89,-1139.55 -562.19,-1797.07 69.98,-777.26 549.76,-1591.26 1330.39,-1818.07 727.68,-211.69 1743.22,170.64 1811.17,1015.95 29.98,385.75 -173.92,833.01 -567.75,944.96 -369.8,105.06 -904.57,-207.1 -685.68,-633.02 72.99,-140.91 246.92,-207.88 380.85,-104.01 86.94,66.93 209.91,-53.91 121.93,-121.76 -155.94,-121.05 -372.81,-139.95 -530.76,-8.49 -155.92,128.82 -208.9,333.74 -181.91,527.33 56.95,415.93 557.72,590.34 918.56,511.6 395.84,-86.37 648.73,-483.9 704.69,-863.65 5.01,-30.28 7.98,-60.65 10,-91.04 193.9,0 386.83,0 580.73,0 420.82,443.01 1152.46,424.99 1547.29,-51.67 30.99,-37.08 33.99,-84.98 0,-121.76 -206.89,-222.13 -490.78,-344.75 -794.64,-346.24 -296.84,7 -572.72,129.65 -774.67,347.55 -186.89,0 -372.79,0 -558.71,0 -23,-299.75 -158.93,-585.03 -382.83,-793.44 -585.74,-546.36 -1520.29,-579.62 -2169,-129.34 -648.7,450.81 -970.55,1313.71 -940.58,2082.45 20.12,515.16 200.51,1011.78 502.03,1422.9 80.65,7.91 161.02,16.88 241.08,26.82zm-2127 -26.81c341.82,-467.5 523.18,-1043 503.29,-1631.33 -26.99,-772.02 -423.79,-1609.34 -1122.48,-1984.89 -678.71,-364.43 -1653.23,-236.08 -2133,399.83 -139.95,185.72 -219.9,406.93 -236.9,633.81 -186.92,0 -372.83,0 -559.72,0 -201.95,-217.9 -477.81,-340.55 -774.68,-347.55 -303.86,1.49 -587.72,124.11 -794.63,346.24 -33.98,36.78 -31,84.68 0,121.76 394.82,476.66 1126.48,494.68 1547.31,51.67 193.89,0 387.81,0 580.71,0 6.99,99.37 25.99,198.41 57.98,294.56 124.95,384.1 445.79,684.19 863.61,682.7 356.82,-1.3 705.68,-253.41 721.67,-625.44 7.97,-179.49 -82.98,-359.92 -228.92,-463.16 -151.91,-108.65 -354.8,-72.08 -493.76,35.59 -87.98,67.85 35,188.69 121.95,121.76 195.89,-151.73 387.84,44.96 424.81,237.28 40.96,213.2 -117.96,381.03 -294.87,466.09 -176.92,85.04 -393.84,69.95 -565.74,-16.91 -181.9,-91.67 -305.86,-275.37 -375.84,-461.5 -139.91,-373.89 -39.98,-798.52 237.9,-1080.99 277.86,-282.39 689.7,-425.72 1079.49,-428.09 392.83,-2.52 776.65,150.59 1066.53,413.77 296.84,268.99 501.77,648.81 613.73,1029.53 221.87,755.49 45.95,1595.88 -451.81,2204.3 -7.46,9.14 -14.97,18.21 -22.57,27.21 78.34,-9.75 157.01,-18.47 235.94,-26.24zm-8498.07 8307.48c-497.87,422.68 -1145.9,632.27 -1808.67,572.61 -777.63,-69.88 -1591.26,-550.67 -1818.18,-1330.78 -211.9,-728.19 170.96,-1743.14 1016.52,-1810.6 384.86,-30.8 832.65,173.91 944.6,567.44 104.94,369.13 -206.92,904.18 -632.71,684.97 -140.94,-72.65 -207.9,-246.58 -104.95,-380.72 66.96,-86.65 -53,-209.41 -120.92,-121.74 -121.96,156.34 -139.96,372.32 -9.03,531.07 128.93,155.43 333.85,208.68 527.76,182.2 415.81,-56.98 589.73,-558.25 510.79,-918.97 -85.98,-396.51 -483.79,-648.8 -862.65,-705.47 -30.94,-4.49 -60.95,-7.41 -91.93,-9.51 0,-193.41 0,-386.81 0,-580.12 443.79,-421.03 425.79,-1152.99 -50.98,-1547.71 -38,-30.69 -84.97,-34.19 -121.95,0 -221.89,206.92 -344.86,490.99 -345.85,794.24 6,297.16 128.95,573.75 346.87,775.52 0,186.24 0,372.45 0,558.66 -299.88,22.81 -584.75,158.33 -792.67,382.05 -546.71,586.19 -579.71,1520.6 -129.91,2169 450.78,649.28 1313.38,971.64 2083.03,941.36 519.95,-20.55 1020.95,-204.15 1434.59,-511.25 7.73,-81.06 16.49,-161.81 26.24,-242.25zm-23.34 2105.3c-471.92,-354.66 -1057.74,-543.25 -1657.39,-522.66 -771.63,26.37 -1609.25,423.37 -1985.1,1122.57 -364.83,678.59 -235.87,1652.96 399.82,2132.83 185.91,140.14 407.83,219.89 634.73,236.6 0,186.52 0,373.02 0,559.53 -218.92,201.91 -340.87,478.06 -347.85,775.34 1,303.47 123.94,587.43 345.86,794.23 36.95,34.19 84.93,30.8 121.95,0 476.75,-394.42 494.72,-1126.69 51.95,-1547.49 0,-193.6 0,-387.22 0,-580.8 98.96,-6.71 197.89,-25.52 293.87,-57.08 383.82,-125.77 684.67,-446.4 682.66,-863.93 -0.98,-356.91 -252.86,-705.27 -624.69,-721.55 -179.91,-7.91 -360.82,83.16 -463.79,228.08 -107.92,152.53 -71.96,355.34 35.99,494.47 67.95,87.67 188.89,-35.07 121.93,-121.76 -151.92,-195.9 45.01,-388.29 236.87,-425.08 212.93,-40.78 380.86,117.83 465.83,294.56 84.95,176.82 69.96,393.92 -17.02,566.14 -90.96,181.52 -274.86,305.56 -460.77,375.43 -374.83,140.23 -798.62,40.28 -1081.53,-237.49 -281.85,-277.59 -425.79,-689.48 -427.76,-1079.68 -2.02,-392.82 150.91,-776.67 413.78,-1066.52 268.89,-296.59 648.71,-501.3 1029.55,-613.26 755.64,-221.98 1596.23,-46.67 2203.99,450.9 18.17,14.92 36.12,30.12 53.81,45.62 -9.95,-79.35 -18.77,-159.04 -26.69,-239zm8292.54 8491.64c415.16,495.87 620.23,1138.83 562.25,1795.64 -69.96,777.13 -551.73,1591.44 -1331.38,1818.26 -728.68,211.6 -1743.22,-170.64 -1810.19,-1016.24 -31,-385.63 172.91,-832.81 566.75,-944.78 369.83,-105.04 904.56,206.73 685.7,633.01 -72.98,140.77 -246.9,207.71 -380.82,104.06 -86.99,-66.96 -209.94,53.77 -121.97,121.76 155.93,121.13 371.85,139.73 530.77,8.32 154.92,-128.57 208.89,-333.91 181.9,-527.38 -55.96,-416.04 -557.73,-590.03 -918.58,-511.28 -396.81,86.48 -648.7,483.89 -705.67,863.61 -4.97,30.27 -7,60.69 -8.99,90.96 -193.9,0 -386.82,0 -580.73,0 -420.81,-443.29 -1152.47,-425.3 -1547.29,51.77 -31,37.19 -33.99,84.58 0,121.71 206.91,221.95 490.78,344.59 794.61,346.1 296.89,-6.93 573.79,-129.55 775.66,-347.58 185.93,0 371.83,0 557.75,0 22.98,299.69 157.95,585.05 381.82,793.36 586.72,546.44 1521.3,579.63 2170.03,129.54 648.68,-450.74 971.52,-1313.89 940.56,-2082.74 -20.11,-514.63 -200.25,-1010.85 -501.83,-1421.66 -80.43,-7.78 -160.53,-16.63 -240.35,-26.44zm6241.65 199.78c-142.96,-160.85 -218.88,-361.76 -217.9,-580.65 6.02,-217.52 90.97,-414.01 237.9,-568.92 307.85,327.94 296.85,832.8 -20,1149.57zm-80.98 -1540.28c15.33,69.54 28.54,139.58 40.02,209.87 -217.91,192.05 -339.87,460.39 -349.86,749.76 -1,289.77 114.96,562.04 325.85,761.56 35.99,34.57 83.95,30.28 120.96,0 457.75,-372.55 478.78,-1066.63 63.97,-1473.23 8.97,-16.1 13,-35.17 9.98,-57.18 -15.08,-96.59 -34.27,-192.42 -57.59,-286.99 -50.72,32.64 -101.96,64.52 -153.33,96.21zm1007.54 -19175.45c345.83,91.3 607.75,296.18 788.66,602.63 156.94,267.96 251.88,572.62 272.88,883.09 21.97,334.85 -41.01,674.38 -190.91,975.25 -152.93,304.65 -382.84,555.66 -653.71,757.18 638.7,179.9 1336.4,64.24 1872.13,-324.97 134.95,-178.51 293.86,-337.85 474.79,-470.78 159.93,-213.61 285.87,-458.79 332.85,-714.27 68.98,-376.56 -51,-779.94 -324.86,-1050.32 -265.91,-262.88 -710.67,-451.99 -1036.5,-173.34 -139.97,118.94 -268.89,314.78 -189.95,502.67 33.01,78.59 123.97,181.72 217.92,182.63 68.96,0.71 221.9,-96.76 107.97,-151.74 -99.99,-48.26 -13,-196.7 86.93,-148.62 172.93,83.97 145.93,299.86 10.99,405.7 -139.92,109.56 -327.83,70.08 -452.78,-42.66 -275.87,-248.4 -167.91,-657.69 96.97,-869.59 585.72,-469.2 1356.37,40.97 1585.28,645.99 154.88,407.4 86.94,831.91 -103.01,1206.45 196.96,-101.65 410.85,-173.24 630.75,-184.72 378.82,-19.88 764.65,120.65 1032.52,392.02 263.89,266.86 463.81,677.37 308.84,1050.5 -133.93,322.26 -556.74,661.2 -904.6,414.62 -148.89,-105.14 -271.84,-302.65 -178.91,-484.57 87.01,-169.34 341.88,-249.09 440.83,-44.39 48.96,99.48 -99.94,186.79 -147.94,86.85 -29.99,-60.76 -85.97,-39.05 -121.93,6.71 -32,41.39 -38.99,97.07 -19.02,145.34 36.98,90.27 117.99,164.53 213.92,187.23 194.92,46.36 400.82,-96.96 499.77,-258.5 226.9,-371.12 10.98,-808.22 -297.87,-1058.81 -297.83,-243 -710.65,-331.55 -1080.51,-219.13 -206.89,62.6 -402.81,163.26 -579.74,290.58 -138.92,183.82 -304.85,346.84 -481.76,478.09 -395.8,541.66 -514.76,1238.73 -332.86,1882.54 280.88,-376.02 662.72,-675.39 1125.5,-790.64 432.81,-107.66 893.56,-62.87 1299.39,120.84 292.89,132.74 561.74,331.07 699.66,630.03 153.95,335.14 202.94,757.43 30.02,1096.18 -85.97,167.12 -230.9,316.65 -419.81,357.34 -183.94,39.4 -384.83,-3.19 -514.77,-146.04 -128.92,-141.42 -110.95,-394.42 37.97,-515.24 158.94,-129.57 431.81,22.76 311.88,224.99 -55.99,95.44 -204.92,8.89 -147.95,-86.86 16.98,-30.49 -64.96,-3.02 -78.94,19.7 -16.03,27.57 -30.02,55.34 -35.01,87.54 -9,56.86 4.99,124.54 48.99,164.83 86.94,80.35 215.9,115.65 331.84,85.06 251.88,-66.25 377.82,-331.45 396.84,-574.23 28.98,-361.73 -95.96,-753.96 -388.83,-981.95 -234.9,-183.12 -523.77,-300.86 -817.65,-347.25 -319.83,-50.49 -661.65,-16.29 -959.54,115.44 -360.83,160.03 -647.71,430.6 -863.6,758.36 -5.01,18.69 -18.98,33.19 -35.99,42.48 -52.97,35.98 -130.95,-3.09 -136.94,-61.37 -222.88,-611.83 -180.91,-1303.82 121.94,-1880.43 -572.72,291.65 -1251.43,339.05 -1864.12,116.73 -57.99,-5.37 -97.96,-84.07 -62,-137.42 10.01,-17.39 23.98,-31 42.99,-36.61 417.8,-275.06 750.67,-675.77 856.61,-1173.14 66.98,-311.36 46.96,-638.41 -53.96,-940.59 -92.97,-280.45 -253.91,-585.13 -514.78,-742.34 -305.87,-185.01 -754.66,-261.38 -1077.52,-72.68 -161.91,94.26 -293.85,273.27 -239.86,470 24.98,92.05 79.94,191.7 182.89,207.59 43.97,6.8 94.97,0 133.95,-23.18 18.98,-11.78 48.98,-26.39 54.99,-51.66 1.97,-9.61 9.96,-53.58 -15.01,-38.6 -95.97,56.67 -181.92,-92.16 -86.98,-148.63 122.98,-72.88 286.88,14.99 276.9,166.04 -8.99,135.63 -116.95,240.95 -251.88,261.76 -274.89,42.79 -483.79,-189.09 -476.8,-459.47 14.01,-599.03 747.67,-738.96 1212.44,-616.24zm-1134.47 2017.69c0,-218.73 75.98,-419.52 217.91,-580.35 317.85,316.65 328.82,821.53 20.99,1149.47 -146.95,-155.01 -230.91,-351.63 -238.9,-569.12zm290.52 1062.74c23.6,-96.91 42.89,-194.92 58.33,-293.53 2.99,-21.96 -0.99,-41.26 -9.99,-57.45 414.81,-406.52 392.8,-1100.69 -63.99,-1473.03 -36.98,-30.28 -84.96,-34.76 -121.94,0 -209.9,199.43 -325.85,471.42 -324.84,761.27 9.99,289.46 131.92,557.81 349.83,750.03 -11.88,72.18 -26.04,143.93 -42.54,214.99 51.99,32.19 103.83,64.59 155.14,97.72zm6944.18 8012.98c190.89,-181.82 435.78,-285.05 703.65,-289.47 267.88,2.2 513.79,103.18 706.69,283.67 -388.82,394.13 -1018.55,397 -1410.34,5.8zm1591.25 -69.17c-229.9,-250.17 -548.74,-389.62 -887.6,-392.41 -312.84,5.2 -607.7,126.04 -829.6,342.36l-2460.42 0c0.38,34.1 1.29,68.07 1.29,102.27 0,23.32 -0.7,46.48 -0.88,69.75l2304.09 0c31.97,0 63.97,0 95.93,0l5 6.59c459.81,542.96 1316.39,540.15 1772.19,-6.91 30.99,-37.2 33.98,-84.77 0,-121.65zm-4034.16 -4991.4c-160.91,142.05 -360.81,218.5 -579.74,217.81 -217.88,-7 -414.79,-91.58 -569.73,-238.1 328.85,-307.66 832.63,-297.07 1149.47,20.29zm-1330.38 40.6c192.93,217.59 460.79,340.02 750.64,349.32 289.87,0.9 560.75,-114.45 760.68,-324.86 34.97,-36.68 29.96,-84.67 0,-121.7 -371.83,-457.03 -1066.51,-478.7 -1472.35,-63.71 -16.97,-8.9 -35.95,-13.19 -57.96,-9.78 -95.94,14.99 -191.11,33.99 -285.05,57.06 32.44,50.78 64.25,102.02 95.76,153.44 69.06,-15.25 138.57,-28.4 208.28,-39.77z"/>
  <path class="fil1 str0" d="M22860 6764.74c4465.39,0 8085.3,3619.91 8085.3,8085.3 0,4465.39 -3619.91,8085.3 -8085.3,8085.3 -4465.38,0 -8085.31,-3619.91 -8085.31,-8085.3 0,-4465.39 3619.93,-8085.3 8085.31,-8085.3z"/>
  <path class="fil0" d="M22860 5338.63c5253,0 9511.4,4258.39 9511.4,9511.41 0,5252.99 -4258.4,9511.4 -9511.4,9511.4 -5252.99,0 -9511.42,-4258.41 -9511.42,-9511.4 0,-5253.02 4258.43,-9511.41 9511.42,-9511.41zm0 504.68c4974.28,0 9006.74,4032.43 9006.74,9006.73 0,4974.29 -4032.46,9006.73 -9006.74,9006.73 -4974.28,0 -9006.75,-4032.44 -9006.75,-9006.73 0,-4974.3 4032.47,-9006.73 9006.75,-9006.73z"/>
  <path class="fil2" d="M26600.4 11105.92c0,774.83 -87.48,1405.05 -260.68,1894.23 -266.01,742.7 -703.41,1314.02 -1314.01,1715.74 -589.16,383.85 -1287.26,574.88 -2092.47,574.88 -1310.46,0 -2317.41,-446.34 -3019.05,-1339.02 -530.27,-676.66 -794.5,-1483.62 -794.5,-2420.92 0,-1039.08 310.63,-1913.89 931.95,-2620.89 703.48,-805.19 1687.19,-1208.69 2949.46,-1208.69 844.47,0 1558.62,216.03 2144.23,648.09 419.55,307.07 776.62,760.56 1073.01,1360.41l-1762.16 726.66c-149.98,-333.85 -324.93,-585.61 -523.13,-751.63 -287.43,-237.45 -626.67,-355.29 -1021.22,-355.29 -806.98,0 -1367.59,415.98 -1685.39,1249.74 -119.61,305.3 -178.55,623.09 -178.55,951.6 0,678.41 214.27,1244.37 644.52,1697.85 317.79,337.43 740.93,507.04 1272.96,507.04 471.33,0 844.49,-137.46 1121.22,-412.42 180.33,-182.09 299.93,-449.89 355.3,-805.17l-1524.7 0 0 -1412.21 3683.21 0z"/>
  <path class="fil2" d="M17349.2 17401.31l-739.65 -77.93c27.92,-129.23 68.16,-231.18 120.76,-305.2 52.6,-74.04 127.93,-138.33 227.29,-192.88 70.8,-39.61 168.86,-70.13 292.88,-91.58 124.05,-21.43 258.48,-32.46 403.28,-32.46 231.84,0 418.88,12.99 559.13,38.95 140.93,25.99 258.47,80.54 351.99,163.01 66.21,57.15 118.17,137.69 156.49,242.23 37.66,105.2 56.51,204.57 56.51,300.02l0 892.27c0,94.8 6.49,169.5 18.17,223.38 12.35,53.89 38.33,122.74 79.24,206.51l-726.7 0c-29.23,-51.95 -48.02,-91.57 -57.12,-118.84 -9.09,-27.27 -17.52,-70.14 -26.62,-128.56 -101.31,98.04 -202.63,167.51 -302.64,209.08 -137.02,55.87 -296.12,83.79 -477.3,83.79 -240.93,0 -424.06,-55.86 -549.4,-167.56 -124.67,-111.06 -187.01,-248.7 -187.01,-412.36 0,-153.91 44.8,-279.88 135.04,-378.58 90.27,-99.38 255.89,-172.76 498.1,-220.81 290.94,-58.45 479.26,-99.35 565.64,-122.72 85.71,-23.38 177.28,-54.56 273.4,-92.22 0,-95.47 -19.48,-161.72 -58.44,-200.02 -39.62,-37.67 -108.45,-57.15 -207.83,-57.15 -126.64,0 -221.42,20.78 -285.08,61.05 -49.35,31.82 -89.62,91.55 -120.13,178.58zm671.48 407.17c-106.51,38.31 -217.57,72.09 -332.51,101.32 -157.14,41.56 -257.14,83.1 -298.71,123.39 -43.5,42.18 -64.95,89.58 -64.95,142.83 0,61.05 21.45,110.41 63.64,149.38 42.88,38.31 105.21,57.79 187.69,57.79 86.36,0 166.24,-20.77 240.92,-62.33 74.04,-42.23 126.64,-93.52 157.81,-153.28 31.17,-60.39 46.11,-138.94 46.11,-235.06l0 -124.04zm1248.14 -1829.98l776.69 0 0 2789.13 -776.69 0 0 -2789.13zm1274.8 0l781.85 0 0 966.3c77.28,-81.18 165.62,-141.58 263.65,-182.5 98.06,-40.26 207.16,-61.04 326.67,-61.04 245.46,0 449.39,88.96 610.44,265.62 161.05,177.27 241.59,431.19 241.59,761.71 0,220.81 -37.01,415.61 -110.41,583.17 -73.38,168.21 -175.32,293.53 -305.23,376.63 -129.88,83.14 -274.05,124.71 -433.15,124.71 -135.72,0 -259.77,-29.23 -372.77,-87.03 -85.05,-46.11 -177.28,-131.84 -277.94,-257.16l0 298.72 -724.7 0 0 -2789.13zm776.65 1773.48c0,173.4 32.48,299.37 97.44,377.3 65.57,77.93 148.04,116.88 248.69,116.88 92.23,0 170.17,-38.3 233.16,-114.94 62.34,-76.63 94.16,-205.84 94.16,-387.02 0,-159.76 -31.17,-277.29 -92.24,-351.99 -61.67,-74.67 -136.37,-112.33 -224.02,-112.33 -105.22,0 -190.92,38.95 -257.81,116.88 -66.25,77.94 -99.38,196.11 -99.38,355.22zm3947.74 1015.65l-723.41 0 0 -327.29c-107.81,134.41 -216.26,230.53 -326.02,287.03 -109.74,57.15 -244.82,85.73 -404.57,85.73 -213,0 -379.9,-63.66 -501.34,-190.93 -120.81,-127.27 -181.17,-324.06 -181.17,-588.98l0 -1285.82 777.96 0 0 1111.1c0,126.65 23.39,216.9 70.15,270.15 47.4,53.26 113,79.88 198.05,79.88 92.87,0 168.21,-35.72 227.3,-106.49 59.11,-71.43 88.31,-198.7 88.31,-382.49l0 -972.15 774.74 0 0 2020.26zm475.39 -2020.26l722.76 0 0 294.83c104.56,-123.37 209.13,-210.4 314.95,-263.01 105.86,-51.95 233.81,-77.93 383.82,-77.93 161.04,0 288.33,28.58 381.85,85.73 94.16,57.14 170.78,142.21 230.52,255.21 121.43,-131.82 232.49,-222.1 333.16,-269.5 99.97,-47.41 223.38,-71.44 370.81,-71.44 216.91,0 386.39,64.28 507.84,193.51 122.09,128.61 182.47,329.9 182.47,603.95l0 1268.91 -776.04 0 0 -1150.73c0,-91.56 -17.55,-159.74 -53.26,-203.89 -51.95,-69.5 -116.89,-104.55 -194.16,-104.55 -90.91,0 -164.96,33.11 -220.81,98.71 -55.85,66.22 -83.12,172.06 -83.12,318.17l0 1042.29 -776.66 0 0 -1113.06c0,-88.99 -5.21,-148.7 -14.96,-180.53 -16.87,-50.64 -45.44,-91.55 -85.73,-122.73 -40.9,-31.17 -88.3,-46.75 -142.85,-46.75 -88.99,0 -161.7,33.75 -218.85,100.65 -57.15,67.53 -85.73,177.92 -85.73,331.18l0 1031.24 -776.01 0 0 -2020.26z"/>
 </g>
</svg>
